# xmcd
#
# Track frame offsets:
#	150
#	12197
#	27912
#	40882
#	58502
#	72612
#	86452
#	105342
#	118102
#	137202
#	151825
#	168902
#	179880
#	190875
#	203332
#	220350
#	237070
#	253217
#	268037
#	278717
#
# Disc length: 3877 seconds
#
# Revision: 1
# Processed by: cddbd v1.5.1PL0 Copyright (c) Steve Scherf et al.
# Submitted via: AudioConverter v4.5 Copyright (c) AC Productions Ltd
#
DISCID=1d0f2314
DTITLE=Various Artist - The All Time Greatest Country Songs Disc 2
DYEAR=1998
DGENRE=Country
TTITLE0=Dolly Parton - Jolene
TTITLE1=Tanya Tucker - Down To My Last Teardrop
TTITLE2=Mary Chapin Carpenter - Let Me Into Your Heart
TTITLE3=The Judds - Love Can Build A Bridge
TTITLE4=Elvis Costello - A Good Year For The Roses
TTITLE5=Don Williams - I'm Just A Country Boy
TTITLE6=Nanci Griffith - From A Distance
TTITLE7=Bobby Bare - Detroit City
TTITLE8=Bobbie Gentry - Ode To Billy Joe
TTITLE9=Bellamy Brothers - If I Said You Had A Beautiful Body
TTITLE10=Mac Davis - Memories
TTITLE11=Neil Diamond - Kentucky Woman
TTITLE12=Roger Miller - King Of The Road
TTITLE13=Johnny Cash and June Carter - Jackson
TTITLE14=Johnny Cash - Riders In The Sky
TTITLE15=Tony Joe White - Polk Salad Annie
TTITLE16=Charlie Daniels Band - The Devil Went Down To Georgia
TTITLE17=Eric Weissberg and Steve Mandell - Duellin' Banjos
TTITLE18=Ricky Van Shelton - From A Jack To A King
TTITLE19=Meree Haggard - Workin' Man Blues
EXTD=
EXTT0=
EXTT1=
EXTT2=
EXTT3=
EXTT4=
EXTT5=
EXTT6=
EXTT7=
EXTT8=
EXTT9=
EXTT10=
EXTT11=
EXTT12=
EXTT13=
EXTT14=
EXTT15=
EXTT16=
EXTT17=
EXTT18=
EXTT19=
PLAYORDER=
